<?xml version="1.0" encoding="utf-8"?>
<!-- Generator: Adobe Illustrator 23.0.1, SVG Export Plug-In . SVG Version: 6.00 Build 0)  -->
<svg version="1.1" id="Layer_1" xmlns="http://www.w3.org/2000/svg" xmlns:xlink="http://www.w3.org/1999/xlink" x="0px" y="0px"
	 viewBox="0 0 84 84" style="enable-background:new 0 0 84 84;" xml:space="preserve">
<style type="text/css">
	.st0{fill:none;}
	.st1{fill:#FFFFFF;}
	.st2{fill:#E1E1E1;}
</style>
<rect class="st0" width="84" height="84"/>
<g>
	<path class="st1" d="M54.7,29.8L46.3,25c-1-0.6-2.1-0.8-3.2-1c-0.2,0-0.4-0.1-0.7-0.1h-0.1h-0.1c-0.2,0-0.4,0.1-0.7,0.1
		c-1.1,0.1-2.2,0.4-3.2,1L30,29.8c-2.5,1.5-4.1,4.2-4.1,7.1v9.7c0,2.9,1.6,5.6,4.1,7.1l8.4,4.8c1,0.6,2.1,0.8,3.2,1
		c0.2,0,0.4,0.1,0.7,0.1h0.1h0.1c0.2,0,0.4-0.1,0.7-0.1c1.1-0.1,2.2-0.4,3.2-1l8.4-4.8c2.5-1.5,4.1-4.2,4.1-7.1v-9.7
		C58.8,33.9,57.3,31.2,54.7,29.8z"/>
	<path class="st2" d="M41.5,42.2L41.5,42.2c-0.6-0.1-1.1-0.3-1.7-0.6l-8.4-4.9c-0.3-0.2-1.8-1.1-2.9-1.8c-0.4,0.9-0.7,2-0.7,3v8.3
		c0,2.5,1.3,4.8,3.5,6.1l7.2,4.1c0.8,0.5,1.8,0.7,2.7,0.8l0,0c0.2,0,0.4,0.1,0.6,0.1h0.1H42c0.1,0,0.1,0,0.2,0v-15
		C41.9,42.3,41.7,42.2,41.5,42.2z"/>
	<path d="M53.9,30.5L46,25.9c-0.9-0.5-1.9-0.8-3-0.9l0,0c-0.2,0-0.4-0.1-0.6-0.1h-0.1h-0.1c-0.2,0-0.4,0.1-0.6,0.1l0,0
		c-1,0.1-2.1,0.4-3,0.9l-7.9,4.6c-2.4,1.4-3.9,4-3.9,6.7v9.1c0,2.8,1.5,5.3,3.9,6.7l7.9,4.6c0.9,0.5,1.9,0.8,3,0.9l0,0
		c0.2,0,0.4,0.1,0.6,0.1h0.1h0.1c0.2,0,0.4-0.1,0.6-0.1l0,0c1-0.1,2.1-0.4,3-0.9l7.9-4.6c2.4-1.4,3.9-4,3.9-6.7v-9.1
		C57.8,34.5,56.3,31.9,53.9,30.5 M31.2,34.2c0.4-1,8.9-5.4,8.9-5.4c0.6-0.4,1.4-0.6,2.1-0.6c0.7,0,1.4,0.2,2.1,0.6
		c0,0,8.6,4.4,8.9,5.4c0.3,0.8-0.6,1.6-1.3,2l-8.4,4.9c-0.2,0.1-0.5,0.2-0.7,0.2s-0.4,0.1-0.6,0.1c-0.2,0-0.4,0-0.6-0.1
		c-0.2,0-0.5-0.1-0.7-0.2l-8.4-4.8C31.7,35.8,30.9,35,31.2,34.2 M54.4,46.4c0,1.6-0.8,3.1-2.2,3.8l-7.9,4.6
		c-0.6,0.4-1.4,0.6-2.1,0.6c-0.7,0-1.4-0.2-2.1-0.6l-7.9-4.6c-1.4-0.8-2.2-2.3-2.2-3.8V46c0.2,0.1,0.3,0.3,0.5,0.4l9.3,5.4
		c0.5,0.3,1,0.4,1.6,0.5l0,0c0.2,0,0.4,0.1,0.7,0.1h0.1h0.1c0.2,0,0.4-0.1,0.7-0.1l0,0c0.6-0.1,1.1-0.3,1.6-0.5l9.3-5.4
		c0.2-0.1,0.4-0.3,0.5-0.4C54.4,46,54.4,46.4,54.4,46.4z M54.4,44.4c-0.3,0.4-0.6,0.7-1.1,1L44,50.8c-0.4,0.2-0.8,0.4-1.2,0.4
		c-0.2,0-0.4,0-0.6,0c-0.2,0-0.4,0-0.6,0c-0.4-0.1-0.8-0.2-1.2-0.4l-9.3-5.4c-0.4-0.3-0.8-0.6-1.1-1v-2.8c0.2,0.1,0.3,0.3,0.5,0.4
		l9.3,5.4c0.5,0.3,1,0.4,1.6,0.5l0,0c0.2,0,0.4,0.1,0.7,0.1h0.1h0.1c0.2,0,0.4-0.1,0.7-0.1l0,0c0.6-0.1,1.1-0.3,1.6-0.5l9.3-5.4
		c0.2-0.1,0.4-0.3,0.5-0.4V44.4z M54.4,40.1c-0.3,0.4-0.6,0.7-1.1,1L44,46.5c-0.4,0.2-0.8,0.4-1.2,0.4c-0.2,0-0.4,0-0.6,0
		c-0.2,0-0.4,0-0.6,0c-0.4-0.1-0.8-0.2-1.2-0.4l-9.3-5.4c-0.4-0.3-0.8-0.6-1.1-1v-2.9V37c0.4,0.5,0.8,0.9,1.4,1.2l8.4,4.9
		c0.5,0.3,1.1,0.5,1.7,0.6l0,0c0.2,0,0.4,0.1,0.7,0.1h0.1h0.1c0.2,0,0.4-0.1,0.7-0.1l0,0c0.6-0.1,1.1-0.3,1.7-0.6l8.4-4.9
		c0.5-0.3,1-0.7,1.4-1.2v0.2v2.9H54.4z"/>
	<path d="M66.9,34.4c-1,0-1.9-0.8-1.9-1.9v-2.4c0-1.6-0.9-3.1-2.3-3.9L44.1,15.4c-1.4-0.8-3.1-0.8-4.5,0L20.9,26.2
		c-1.4,0.8-2.3,2.3-2.3,3.9v2.4c0,1-0.8,1.9-1.9,1.9c-1.1,0-1.9-0.8-1.9-1.9v-2.4c0-2.9,1.6-5.6,4.1-7.1l18.7-10.8
		c2.5-1.5,5.7-1.5,8.2,0L64.5,23c2.5,1.5,4.1,4.2,4.1,7.1v2.4C68.8,33.6,68,34.4,66.9,34.4"/>
	<path d="M41.9,72.9c-1.4,0-2.8-0.4-4.1-1.1L19.1,61c-2.5-1.5-4.1-4.2-4.1-7.1v-2.4c0-1,0.8-1.9,1.9-1.9c1.1,0,1.9,0.8,1.9,1.9v2.4
		c0,1.6,0.9,3.1,2.3,3.9l18.7,10.8c1.4,0.8,3.1,0.8,4.5,0L63,57.8c1.4-0.8,2.3-2.3,2.3-3.9v-2.4c0-1,0.8-1.9,1.9-1.9
		c1,0,1.9,0.8,1.9,1.9v2.4c0,2.9-1.6,5.6-4.1,7.1l-19,10.8C44.7,72.5,43.3,72.9,41.9,72.9"/>
</g>
</svg>
